<mxfile host="Electron" modified="2023-07-24T07:17:27.886Z" agent="Mozilla/5.0 (Windows NT 10.0; Win64; x64) AppleWebKit/537.36 (KHTML, like Gecko) draw.io/21.6.1 Chrome/112.0.5615.204 Electron/24.6.1 Safari/537.36" etag="ZKn2CN3V9bKYtomP5X28" version="21.6.1" type="device">
  <diagram name="第 1 页" id="5KSprpMwUYVPSRvnmA9z">
    <mxGraphModel dx="1687" dy="993" grid="0" gridSize="3.9369999999999994" guides="1" tooltips="1" connect="1" arrows="1" fold="1" page="1" pageScale="1" pageWidth="1654" pageHeight="1169" background="#E6E6E6" math="0" shadow="0">
      <root>
        <mxCell id="0" />
        <mxCell id="1" parent="0" />
        <mxCell id="-fVv7rPrCd2kUO5Vlaj1-34" value="" style="endArrow=none;html=1;rounded=0;strokeColor=#00FF00;opacity=50;strokeWidth=3;" parent="1" edge="1">
          <mxGeometry width="50" height="50" relative="1" as="geometry">
            <mxPoint x="945" y="247" as="sourcePoint" />
            <mxPoint x="973" y="262" as="targetPoint" />
          </mxGeometry>
        </mxCell>
        <mxCell id="-fVv7rPrCd2kUO5Vlaj1-28" value="" style="endArrow=none;html=1;rounded=0;strokeColor=#00FF00;opacity=50;strokeWidth=3;" parent="1" edge="1">
          <mxGeometry width="50" height="50" relative="1" as="geometry">
            <mxPoint x="836" y="262" as="sourcePoint" />
            <mxPoint x="867" y="247" as="targetPoint" />
          </mxGeometry>
        </mxCell>
        <mxCell id="-fVv7rPrCd2kUO5Vlaj1-25" value="" style="endArrow=none;html=1;rounded=0;strokeColor=#0000FF;opacity=50;strokeWidth=3;" parent="1" edge="1">
          <mxGeometry width="50" height="50" relative="1" as="geometry">
            <mxPoint x="709" y="247" as="sourcePoint" />
            <mxPoint x="740" y="262" as="targetPoint" />
          </mxGeometry>
        </mxCell>
        <mxCell id="-fVv7rPrCd2kUO5Vlaj1-26" value="" style="endArrow=none;html=1;rounded=0;strokeColor=#0000FF;strokeWidth=3;opacity=50;" parent="1" edge="1">
          <mxGeometry width="50" height="50" relative="1" as="geometry">
            <mxPoint x="740" y="262" as="sourcePoint" />
            <mxPoint x="782" y="262" as="targetPoint" />
          </mxGeometry>
        </mxCell>
        <mxCell id="-fVv7rPrCd2kUO5Vlaj1-27" value="" style="endArrow=none;html=1;rounded=0;strokeColor=#00FF00;strokeWidth=3;opacity=50;" parent="1" edge="1">
          <mxGeometry width="50" height="50" relative="1" as="geometry">
            <mxPoint x="782" y="262" as="sourcePoint" />
            <mxPoint x="836" y="262" as="targetPoint" />
          </mxGeometry>
        </mxCell>
        <mxCell id="-fVv7rPrCd2kUO5Vlaj1-29" value="" style="endArrow=none;html=1;rounded=0;strokeWidth=3;opacity=50;strokeColor=#00FF00;" parent="1" edge="1">
          <mxGeometry width="50" height="50" relative="1" as="geometry">
            <mxPoint x="836" y="262" as="sourcePoint" />
            <mxPoint x="866.097" y="278.007" as="targetPoint" />
          </mxGeometry>
        </mxCell>
        <mxCell id="EGFDkehEQVp23pimZ-VM-83" value="" style="endArrow=none;html=1;rounded=0;strokeWidth=3;opacity=50;strokeColor=#00FF00;" parent="1" edge="1">
          <mxGeometry width="50" height="50" relative="1" as="geometry">
            <mxPoint x="1253" y="335" as="sourcePoint" />
            <mxPoint x="1183.0025" y="395.00250000000005" as="targetPoint" />
          </mxGeometry>
        </mxCell>
        <mxCell id="EGFDkehEQVp23pimZ-VM-87" value="" style="endArrow=none;html=1;rounded=0;strokeWidth=3;opacity=50;strokeColor=#00FF00;" parent="1" edge="1">
          <mxGeometry width="50" height="50" relative="1" as="geometry">
            <mxPoint x="1333" y="335" as="sourcePoint" />
            <mxPoint x="1253.005" y="335.505" as="targetPoint" />
          </mxGeometry>
        </mxCell>
        <mxCell id="EGFDkehEQVp23pimZ-VM-86" value="" style="endArrow=none;html=1;rounded=0;strokeWidth=3;opacity=50;strokeColor=#00FF00;" parent="1" edge="1">
          <mxGeometry width="50" height="50" relative="1" as="geometry">
            <mxPoint x="1402.0025" y="394.50249999999994" as="sourcePoint" />
            <mxPoint x="1333.0025" y="335.50249999999994" as="targetPoint" />
          </mxGeometry>
        </mxCell>
        <mxCell id="EGFDkehEQVp23pimZ-VM-90" value="" style="endArrow=none;html=1;rounded=0;strokeWidth=3;opacity=50;strokeColor=#00FF00;" parent="1" edge="1">
          <mxGeometry width="50" height="50" relative="1" as="geometry">
            <mxPoint x="1432.0025" y="396.00250000000005" as="sourcePoint" />
            <mxPoint x="1414.0025" y="414.00250000000005" as="targetPoint" />
          </mxGeometry>
        </mxCell>
        <mxCell id="EGFDkehEQVp23pimZ-VM-89" value="" style="endArrow=none;html=1;rounded=0;strokeWidth=3;opacity=50;strokeColor=#00FF00;" parent="1" edge="1">
          <mxGeometry width="50" height="50" relative="1" as="geometry">
            <mxPoint x="1413.9975000000002" y="395.49749999999995" as="sourcePoint" />
            <mxPoint x="1432.9925" y="414.49250000000006" as="targetPoint" />
          </mxGeometry>
        </mxCell>
        <mxCell id="EGFDkehEQVp23pimZ-VM-84" value="" style="endArrow=none;html=1;rounded=0;strokeWidth=3;opacity=50;strokeColor=#00FF00;" parent="1" edge="1">
          <mxGeometry width="50" height="50" relative="1" as="geometry">
            <mxPoint x="1403.0025" y="415.00250000000005" as="sourcePoint" />
            <mxPoint x="1333.005" y="475.005" as="targetPoint" />
          </mxGeometry>
        </mxCell>
        <mxCell id="EGFDkehEQVp23pimZ-VM-88" value="" style="endArrow=none;html=1;rounded=0;strokeWidth=3;opacity=50;strokeColor=#00FF00;" parent="1" edge="1">
          <mxGeometry width="50" height="50" relative="1" as="geometry">
            <mxPoint x="1333.0025" y="475.00250000000005" as="sourcePoint" />
            <mxPoint x="1253.0075000000002" y="475.50749999999994" as="targetPoint" />
          </mxGeometry>
        </mxCell>
        <mxCell id="EGFDkehEQVp23pimZ-VM-85" value="" style="endArrow=none;html=1;rounded=0;strokeWidth=3;opacity=50;strokeColor=#00FF00;" parent="1" edge="1">
          <mxGeometry width="50" height="50" relative="1" as="geometry">
            <mxPoint x="1253" y="475" as="sourcePoint" />
            <mxPoint x="1184" y="416" as="targetPoint" />
          </mxGeometry>
        </mxCell>
        <mxCell id="EGFDkehEQVp23pimZ-VM-81" value="" style="endArrow=none;html=1;rounded=0;strokeWidth=3;opacity=50;strokeColor=#00FF00;" parent="1" edge="1">
          <mxGeometry width="50" height="50" relative="1" as="geometry">
            <mxPoint x="1153.005" y="395.005" as="sourcePoint" />
            <mxPoint x="1172" y="414" as="targetPoint" />
          </mxGeometry>
        </mxCell>
        <mxCell id="EGFDkehEQVp23pimZ-VM-82" value="" style="endArrow=none;html=1;rounded=0;strokeWidth=3;opacity=50;strokeColor=#00FF00;" parent="1" edge="1">
          <mxGeometry width="50" height="50" relative="1" as="geometry">
            <mxPoint x="1172" y="396" as="sourcePoint" />
            <mxPoint x="1154" y="414" as="targetPoint" />
          </mxGeometry>
        </mxCell>
        <mxCell id="EGFDkehEQVp23pimZ-VM-80" value="" style="endArrow=none;html=1;rounded=0;strokeWidth=3;opacity=50;strokeColor=#00FF00;" parent="1" edge="1">
          <mxGeometry width="50" height="50" relative="1" as="geometry">
            <mxPoint x="1099.0025" y="415.01250000000005" as="sourcePoint" />
            <mxPoint x="1473" y="415" as="targetPoint" />
          </mxGeometry>
        </mxCell>
        <mxCell id="-fVv7rPrCd2kUO5Vlaj1-33" value="" style="endArrow=none;html=1;rounded=0;strokeColor=#00FF00;opacity=50;strokeWidth=3;" parent="1" edge="1">
          <mxGeometry width="50" height="50" relative="1" as="geometry">
            <mxPoint x="945" y="278" as="sourcePoint" />
            <mxPoint x="972.9970000000001" y="260.997" as="targetPoint" />
          </mxGeometry>
        </mxCell>
        <mxCell id="-fVv7rPrCd2kUO5Vlaj1-32" value="" style="endArrow=none;html=1;rounded=0;strokeWidth=3;opacity=50;strokeColor=#00FF00;" parent="1" edge="1">
          <mxGeometry width="50" height="50" relative="1" as="geometry">
            <mxPoint x="866.004" y="277.994" as="sourcePoint" />
            <mxPoint x="945.004" y="277.994" as="targetPoint" />
          </mxGeometry>
        </mxCell>
        <mxCell id="-fVv7rPrCd2kUO5Vlaj1-31" value="" style="endArrow=none;html=1;rounded=0;strokeWidth=3;opacity=50;strokeColor=#00FF00;" parent="1" edge="1">
          <mxGeometry width="50" height="50" relative="1" as="geometry">
            <mxPoint x="865.997" y="246.997" as="sourcePoint" />
            <mxPoint x="944.997" y="246.997" as="targetPoint" />
          </mxGeometry>
        </mxCell>
        <mxCell id="-fVv7rPrCd2kUO5Vlaj1-30" value="" style="endArrow=none;html=1;rounded=0;strokeWidth=3;opacity=50;strokeColor=#00FF00;" parent="1" edge="1">
          <mxGeometry width="50" height="50" relative="1" as="geometry">
            <mxPoint x="837" y="262" as="sourcePoint" />
            <mxPoint x="973" y="262" as="targetPoint" />
          </mxGeometry>
        </mxCell>
        <mxCell id="-fVv7rPrCd2kUO5Vlaj1-35" value="" style="endArrow=none;html=1;rounded=0;strokeColor=#00FF00;opacity=50;strokeWidth=3;" parent="1" edge="1">
          <mxGeometry width="50" height="50" relative="1" as="geometry">
            <mxPoint x="973" y="262" as="sourcePoint" />
            <mxPoint x="1103" y="262" as="targetPoint" />
          </mxGeometry>
        </mxCell>
        <mxCell id="-fVv7rPrCd2kUO5Vlaj1-36" value="" style="endArrow=none;html=1;rounded=0;strokeWidth=3;strokeColor=#00FF00;opacity=50;" parent="1" edge="1">
          <mxGeometry width="50" height="50" relative="1" as="geometry">
            <mxPoint x="1103" y="262" as="sourcePoint" />
            <mxPoint x="1134" y="294" as="targetPoint" />
          </mxGeometry>
        </mxCell>
        <mxCell id="-fVv7rPrCd2kUO5Vlaj1-37" value="" style="endArrow=none;html=1;rounded=0;opacity=50;strokeWidth=3;strokeColor=#00FF00;" parent="1" edge="1">
          <mxGeometry width="50" height="50" relative="1" as="geometry">
            <mxPoint x="1134.1069999999997" y="375.447" as="sourcePoint" />
            <mxPoint x="1133.9969999999998" y="293.997" as="targetPoint" />
          </mxGeometry>
        </mxCell>
        <mxCell id="EGFDkehEQVp23pimZ-VM-79" value="" style="endArrow=none;html=1;rounded=0;strokeColor=#00FF00;opacity=50;strokeWidth=3;" parent="1" edge="1">
          <mxGeometry width="50" height="50" relative="1" as="geometry">
            <mxPoint x="1099" y="395.01" as="sourcePoint" />
            <mxPoint x="1473" y="395" as="targetPoint" />
          </mxGeometry>
        </mxCell>
        <mxCell id="-fVv7rPrCd2kUO5Vlaj1-38" value="" style="endArrow=none;html=1;rounded=0;strokeWidth=3;opacity=50;strokeColor=#00FF00;" parent="1" edge="1">
          <mxGeometry width="50" height="50" relative="1" as="geometry">
            <mxPoint x="1153.9969999999998" y="394.997" as="sourcePoint" />
            <mxPoint x="1133.9969999999998" y="373.997" as="targetPoint" />
          </mxGeometry>
        </mxCell>
        <mxCell id="EGFDkehEQVp23pimZ-VM-1" value="" style="endArrow=none;html=1;rounded=0;" parent="1" edge="1">
          <mxGeometry width="50" height="50" relative="1" as="geometry">
            <mxPoint x="1253" y="335" as="sourcePoint" />
            <mxPoint x="1333" y="335" as="targetPoint" />
          </mxGeometry>
        </mxCell>
        <mxCell id="EGFDkehEQVp23pimZ-VM-2" value="" style="endArrow=none;html=1;rounded=0;" parent="1" edge="1">
          <mxGeometry width="50" height="50" relative="1" as="geometry">
            <mxPoint x="1253" y="394.8299999999999" as="sourcePoint" />
            <mxPoint x="1333" y="394.8299999999999" as="targetPoint" />
          </mxGeometry>
        </mxCell>
        <mxCell id="EGFDkehEQVp23pimZ-VM-3" value="" style="endArrow=none;html=1;rounded=0;" parent="1" edge="1">
          <mxGeometry width="50" height="50" relative="1" as="geometry">
            <mxPoint x="1253" y="415" as="sourcePoint" />
            <mxPoint x="1333" y="415" as="targetPoint" />
          </mxGeometry>
        </mxCell>
        <mxCell id="EGFDkehEQVp23pimZ-VM-4" value="" style="endArrow=none;html=1;rounded=0;" parent="1" edge="1">
          <mxGeometry width="50" height="50" relative="1" as="geometry">
            <mxPoint x="1253" y="475" as="sourcePoint" />
            <mxPoint x="1333" y="475" as="targetPoint" />
          </mxGeometry>
        </mxCell>
        <mxCell id="EGFDkehEQVp23pimZ-VM-6" value="" style="rounded=0;whiteSpace=wrap;html=1;" parent="1" vertex="1">
          <mxGeometry x="1253" y="345" width="80" height="40" as="geometry" />
        </mxCell>
        <mxCell id="EGFDkehEQVp23pimZ-VM-7" value="" style="rounded=0;whiteSpace=wrap;html=1;" parent="1" vertex="1">
          <mxGeometry x="1253" y="425" width="80" height="40" as="geometry" />
        </mxCell>
        <mxCell id="EGFDkehEQVp23pimZ-VM-8" value="" style="endArrow=none;html=1;rounded=0;" parent="1" edge="1">
          <mxGeometry width="50" height="50" relative="1" as="geometry">
            <mxPoint x="1333" y="335" as="sourcePoint" />
            <mxPoint x="1403" y="395" as="targetPoint" />
          </mxGeometry>
        </mxCell>
        <mxCell id="EGFDkehEQVp23pimZ-VM-9" value="" style="endArrow=none;html=1;rounded=0;" parent="1" edge="1">
          <mxGeometry width="50" height="50" relative="1" as="geometry">
            <mxPoint x="1333" y="415" as="sourcePoint" />
            <mxPoint x="1403" y="415" as="targetPoint" />
          </mxGeometry>
        </mxCell>
        <mxCell id="EGFDkehEQVp23pimZ-VM-10" value="" style="endArrow=none;html=1;rounded=0;" parent="1" edge="1">
          <mxGeometry width="50" height="50" relative="1" as="geometry">
            <mxPoint x="1333" y="475" as="sourcePoint" />
            <mxPoint x="1403" y="415" as="targetPoint" />
          </mxGeometry>
        </mxCell>
        <mxCell id="EGFDkehEQVp23pimZ-VM-11" value="" style="endArrow=none;html=1;rounded=0;" parent="1" edge="1">
          <mxGeometry width="50" height="50" relative="1" as="geometry">
            <mxPoint x="1333" y="395" as="sourcePoint" />
            <mxPoint x="1403" y="395" as="targetPoint" />
          </mxGeometry>
        </mxCell>
        <mxCell id="EGFDkehEQVp23pimZ-VM-12" value="" style="endArrow=none;html=1;rounded=0;" parent="1" edge="1">
          <mxGeometry width="50" height="50" relative="1" as="geometry">
            <mxPoint x="1403" y="395" as="sourcePoint" />
            <mxPoint x="1473" y="395" as="targetPoint" />
          </mxGeometry>
        </mxCell>
        <mxCell id="EGFDkehEQVp23pimZ-VM-13" value="" style="endArrow=none;html=1;rounded=0;" parent="1" edge="1">
          <mxGeometry width="50" height="50" relative="1" as="geometry">
            <mxPoint x="1403" y="415" as="sourcePoint" />
            <mxPoint x="1473" y="415" as="targetPoint" />
          </mxGeometry>
        </mxCell>
        <mxCell id="EGFDkehEQVp23pimZ-VM-14" value="" style="endArrow=none;html=1;rounded=0;" parent="1" edge="1">
          <mxGeometry width="50" height="50" relative="1" as="geometry">
            <mxPoint x="1413" y="395" as="sourcePoint" />
            <mxPoint x="1433" y="415" as="targetPoint" />
          </mxGeometry>
        </mxCell>
        <mxCell id="EGFDkehEQVp23pimZ-VM-15" value="" style="endArrow=none;html=1;rounded=0;" parent="1" edge="1">
          <mxGeometry width="50" height="50" relative="1" as="geometry">
            <mxPoint x="1413" y="415" as="sourcePoint" />
            <mxPoint x="1433" y="395" as="targetPoint" />
          </mxGeometry>
        </mxCell>
        <mxCell id="EGFDkehEQVp23pimZ-VM-16" value="" style="endArrow=none;html=1;rounded=0;" parent="1" edge="1">
          <mxGeometry width="50" height="50" relative="1" as="geometry">
            <mxPoint x="1473" y="425" as="sourcePoint" />
            <mxPoint x="1473" y="405" as="targetPoint" />
          </mxGeometry>
        </mxCell>
        <mxCell id="EGFDkehEQVp23pimZ-VM-17" value="" style="endArrow=none;html=1;rounded=0;" parent="1" edge="1">
          <mxGeometry width="50" height="50" relative="1" as="geometry">
            <mxPoint x="1473" y="395" as="sourcePoint" />
            <mxPoint x="1533" y="335" as="targetPoint" />
          </mxGeometry>
        </mxCell>
        <mxCell id="EGFDkehEQVp23pimZ-VM-18" value="" style="endArrow=none;html=1;rounded=0;" parent="1" edge="1">
          <mxGeometry width="50" height="50" relative="1" as="geometry">
            <mxPoint x="1533" y="335" as="sourcePoint" />
            <mxPoint x="1613" y="335" as="targetPoint" />
          </mxGeometry>
        </mxCell>
        <mxCell id="EGFDkehEQVp23pimZ-VM-19" value="" style="endArrow=none;html=1;rounded=0;" parent="1" edge="1">
          <mxGeometry width="50" height="50" relative="1" as="geometry">
            <mxPoint x="1523" y="345" as="sourcePoint" />
            <mxPoint x="1613" y="345" as="targetPoint" />
          </mxGeometry>
        </mxCell>
        <mxCell id="EGFDkehEQVp23pimZ-VM-20" value="" style="endArrow=none;html=1;rounded=0;" parent="1" edge="1">
          <mxGeometry width="50" height="50" relative="1" as="geometry">
            <mxPoint x="1513" y="355" as="sourcePoint" />
            <mxPoint x="1613" y="355" as="targetPoint" />
          </mxGeometry>
        </mxCell>
        <mxCell id="EGFDkehEQVp23pimZ-VM-21" value="" style="endArrow=none;html=1;rounded=0;" parent="1" edge="1">
          <mxGeometry width="50" height="50" relative="1" as="geometry">
            <mxPoint x="1503" y="365" as="sourcePoint" />
            <mxPoint x="1613" y="364.8299999999999" as="targetPoint" />
          </mxGeometry>
        </mxCell>
        <mxCell id="EGFDkehEQVp23pimZ-VM-22" value="" style="endArrow=none;html=1;rounded=0;" parent="1" edge="1">
          <mxGeometry width="50" height="50" relative="1" as="geometry">
            <mxPoint x="1613" y="375" as="sourcePoint" />
            <mxPoint x="1613" y="325" as="targetPoint" />
          </mxGeometry>
        </mxCell>
        <mxCell id="EGFDkehEQVp23pimZ-VM-23" value="" style="endArrow=none;html=1;rounded=0;" parent="1" edge="1">
          <mxGeometry width="50" height="50" relative="1" as="geometry">
            <mxPoint x="1483" y="384.76" as="sourcePoint" />
            <mxPoint x="1633" y="384.76" as="targetPoint" />
          </mxGeometry>
        </mxCell>
        <mxCell id="EGFDkehEQVp23pimZ-VM-24" value="" style="endArrow=none;html=1;rounded=0;" parent="1" edge="1">
          <mxGeometry width="50" height="50" relative="1" as="geometry">
            <mxPoint x="1633" y="394" as="sourcePoint" />
            <mxPoint x="1633" y="374" as="targetPoint" />
          </mxGeometry>
        </mxCell>
        <mxCell id="EGFDkehEQVp23pimZ-VM-26" value="" style="endArrow=none;html=1;rounded=0;" parent="1" edge="1">
          <mxGeometry width="50" height="50" relative="1" as="geometry">
            <mxPoint x="783" y="415" as="sourcePoint" />
            <mxPoint x="1253" y="415" as="targetPoint" />
          </mxGeometry>
        </mxCell>
        <mxCell id="EGFDkehEQVp23pimZ-VM-25" value="" style="endArrow=none;html=1;rounded=0;" parent="1" edge="1">
          <mxGeometry width="50" height="50" relative="1" as="geometry">
            <mxPoint x="782.6666666666666" y="395" as="sourcePoint" />
            <mxPoint x="1253" y="395" as="targetPoint" />
          </mxGeometry>
        </mxCell>
        <mxCell id="EGFDkehEQVp23pimZ-VM-27" value="" style="endArrow=none;html=1;rounded=0;" parent="1" edge="1">
          <mxGeometry width="50" height="50" relative="1" as="geometry">
            <mxPoint x="1183" y="415" as="sourcePoint" />
            <mxPoint x="1253" y="475" as="targetPoint" />
          </mxGeometry>
        </mxCell>
        <mxCell id="EGFDkehEQVp23pimZ-VM-28" value="" style="endArrow=none;html=1;rounded=0;" parent="1" edge="1">
          <mxGeometry width="50" height="50" relative="1" as="geometry">
            <mxPoint x="1183" y="395" as="sourcePoint" />
            <mxPoint x="1253" y="335" as="targetPoint" />
          </mxGeometry>
        </mxCell>
        <mxCell id="EGFDkehEQVp23pimZ-VM-29" value="" style="endArrow=none;html=1;rounded=0;" parent="1" edge="1">
          <mxGeometry width="50" height="50" relative="1" as="geometry">
            <mxPoint x="1153" y="395" as="sourcePoint" />
            <mxPoint x="1173" y="415" as="targetPoint" />
          </mxGeometry>
        </mxCell>
        <mxCell id="EGFDkehEQVp23pimZ-VM-30" value="" style="endArrow=none;html=1;rounded=0;" parent="1" edge="1">
          <mxGeometry width="50" height="50" relative="1" as="geometry">
            <mxPoint x="1153" y="415" as="sourcePoint" />
            <mxPoint x="1173" y="395" as="targetPoint" />
          </mxGeometry>
        </mxCell>
        <mxCell id="EGFDkehEQVp23pimZ-VM-31" value="" style="endArrow=none;html=1;rounded=0;" parent="1" edge="1">
          <mxGeometry width="50" height="50" relative="1" as="geometry">
            <mxPoint x="573" y="395" as="sourcePoint" />
            <mxPoint x="783" y="395" as="targetPoint" />
          </mxGeometry>
        </mxCell>
        <mxCell id="EGFDkehEQVp23pimZ-VM-32" value="" style="endArrow=none;html=1;rounded=0;" parent="1" edge="1">
          <mxGeometry width="50" height="50" relative="1" as="geometry">
            <mxPoint x="573" y="415" as="sourcePoint" />
            <mxPoint x="783" y="415" as="targetPoint" />
          </mxGeometry>
        </mxCell>
        <mxCell id="EGFDkehEQVp23pimZ-VM-33" value="" style="endArrow=none;html=1;rounded=0;" parent="1" edge="1">
          <mxGeometry width="50" height="50" relative="1" as="geometry">
            <mxPoint x="583" y="415" as="sourcePoint" />
            <mxPoint x="603" y="395" as="targetPoint" />
          </mxGeometry>
        </mxCell>
        <mxCell id="EGFDkehEQVp23pimZ-VM-34" value="" style="endArrow=none;html=1;rounded=0;" parent="1" edge="1">
          <mxGeometry width="50" height="50" relative="1" as="geometry">
            <mxPoint x="583" y="395" as="sourcePoint" />
            <mxPoint x="603" y="415" as="targetPoint" />
          </mxGeometry>
        </mxCell>
        <mxCell id="EGFDkehEQVp23pimZ-VM-35" value="" style="endArrow=none;html=1;rounded=0;" parent="1" edge="1">
          <mxGeometry width="50" height="50" relative="1" as="geometry">
            <mxPoint x="243" y="335" as="sourcePoint" />
            <mxPoint x="503" y="335" as="targetPoint" />
          </mxGeometry>
        </mxCell>
        <mxCell id="EGFDkehEQVp23pimZ-VM-36" value="" style="endArrow=none;html=1;rounded=0;" parent="1" edge="1">
          <mxGeometry width="50" height="50" relative="1" as="geometry">
            <mxPoint x="173" y="395" as="sourcePoint" />
            <mxPoint x="573" y="395" as="targetPoint" />
          </mxGeometry>
        </mxCell>
        <mxCell id="EGFDkehEQVp23pimZ-VM-37" value="" style="endArrow=none;html=1;rounded=0;" parent="1" edge="1">
          <mxGeometry width="50" height="50" relative="1" as="geometry">
            <mxPoint x="173" y="415" as="sourcePoint" />
            <mxPoint x="573" y="415" as="targetPoint" />
          </mxGeometry>
        </mxCell>
        <mxCell id="EGFDkehEQVp23pimZ-VM-38" value="" style="endArrow=none;html=1;rounded=0;" parent="1" edge="1">
          <mxGeometry width="50" height="50" relative="1" as="geometry">
            <mxPoint x="333" y="555" as="sourcePoint" />
            <mxPoint x="413" y="555" as="targetPoint" />
          </mxGeometry>
        </mxCell>
        <mxCell id="EGFDkehEQVp23pimZ-VM-39" value="" style="endArrow=none;html=1;rounded=0;" parent="1" edge="1">
          <mxGeometry width="50" height="50" relative="1" as="geometry">
            <mxPoint x="243" y="475" as="sourcePoint" />
            <mxPoint x="503" y="475" as="targetPoint" />
          </mxGeometry>
        </mxCell>
        <mxCell id="EGFDkehEQVp23pimZ-VM-40" value="" style="endArrow=none;html=1;rounded=0;" parent="1" edge="1">
          <mxGeometry width="50" height="50" relative="1" as="geometry">
            <mxPoint x="263" y="495" as="sourcePoint" />
            <mxPoint x="483" y="495" as="targetPoint" />
          </mxGeometry>
        </mxCell>
        <mxCell id="EGFDkehEQVp23pimZ-VM-41" value="" style="endArrow=none;html=1;rounded=0;" parent="1" edge="1">
          <mxGeometry width="50" height="50" relative="1" as="geometry">
            <mxPoint x="263" y="315" as="sourcePoint" />
            <mxPoint x="483" y="315" as="targetPoint" />
          </mxGeometry>
        </mxCell>
        <mxCell id="EGFDkehEQVp23pimZ-VM-42" value="" style="endArrow=none;html=1;rounded=0;" parent="1" edge="1">
          <mxGeometry width="50" height="50" relative="1" as="geometry">
            <mxPoint x="333" y="255" as="sourcePoint" />
            <mxPoint x="413" y="255" as="targetPoint" />
          </mxGeometry>
        </mxCell>
        <mxCell id="EGFDkehEQVp23pimZ-VM-43" value="" style="endArrow=none;html=1;rounded=0;" parent="1" edge="1">
          <mxGeometry width="50" height="50" relative="1" as="geometry">
            <mxPoint x="413" y="255" as="sourcePoint" />
            <mxPoint x="573" y="395" as="targetPoint" />
          </mxGeometry>
        </mxCell>
        <mxCell id="EGFDkehEQVp23pimZ-VM-44" value="" style="endArrow=none;html=1;rounded=0;" parent="1" edge="1">
          <mxGeometry width="50" height="50" relative="1" as="geometry">
            <mxPoint x="413" y="555" as="sourcePoint" />
            <mxPoint x="573" y="415" as="targetPoint" />
          </mxGeometry>
        </mxCell>
        <mxCell id="EGFDkehEQVp23pimZ-VM-45" value="" style="rounded=0;whiteSpace=wrap;html=1;" parent="1" vertex="1">
          <mxGeometry x="333" y="505" width="80" height="40" as="geometry" />
        </mxCell>
        <mxCell id="EGFDkehEQVp23pimZ-VM-46" value="" style="rounded=0;whiteSpace=wrap;html=1;" parent="1" vertex="1">
          <mxGeometry x="333" y="425" width="80" height="40" as="geometry" />
        </mxCell>
        <mxCell id="EGFDkehEQVp23pimZ-VM-47" value="" style="rounded=0;whiteSpace=wrap;html=1;" parent="1" vertex="1">
          <mxGeometry x="333" y="345" width="80" height="40" as="geometry" />
        </mxCell>
        <mxCell id="EGFDkehEQVp23pimZ-VM-48" value="" style="rounded=0;whiteSpace=wrap;html=1;" parent="1" vertex="1">
          <mxGeometry x="333" y="265" width="80" height="40" as="geometry" />
        </mxCell>
        <mxCell id="EGFDkehEQVp23pimZ-VM-49" value="" style="endArrow=none;html=1;rounded=0;" parent="1" edge="1">
          <mxGeometry width="50" height="50" relative="1" as="geometry">
            <mxPoint x="173" y="415" as="sourcePoint" />
            <mxPoint x="333" y="555" as="targetPoint" />
          </mxGeometry>
        </mxCell>
        <mxCell id="EGFDkehEQVp23pimZ-VM-50" value="" style="endArrow=none;html=1;rounded=0;" parent="1" edge="1">
          <mxGeometry width="50" height="50" relative="1" as="geometry">
            <mxPoint x="173" y="395" as="sourcePoint" />
            <mxPoint x="333" y="255" as="targetPoint" />
          </mxGeometry>
        </mxCell>
        <mxCell id="EGFDkehEQVp23pimZ-VM-51" value="" style="endArrow=classic;html=1;rounded=0;endFill=1;" parent="1" edge="1">
          <mxGeometry width="50" height="50" relative="1" as="geometry">
            <mxPoint x="94" y="395" as="sourcePoint" />
            <mxPoint x="125" y="395" as="targetPoint" />
          </mxGeometry>
        </mxCell>
        <mxCell id="EGFDkehEQVp23pimZ-VM-52" value="" style="endArrow=classic;html=1;rounded=0;endFill=1;" parent="1" edge="1">
          <mxGeometry width="50" height="50" relative="1" as="geometry">
            <mxPoint x="173" y="415" as="sourcePoint" />
            <mxPoint x="93" y="415" as="targetPoint" />
          </mxGeometry>
        </mxCell>
        <mxCell id="EGFDkehEQVp23pimZ-VM-54" value="" style="endArrow=none;html=1;rounded=0;" parent="1" edge="1">
          <mxGeometry width="50" height="50" relative="1" as="geometry">
            <mxPoint x="143" y="415" as="sourcePoint" />
            <mxPoint x="163" y="395" as="targetPoint" />
          </mxGeometry>
        </mxCell>
        <mxCell id="EGFDkehEQVp23pimZ-VM-55" value="" style="endArrow=none;html=1;rounded=0;" parent="1" edge="1">
          <mxGeometry width="50" height="50" relative="1" as="geometry">
            <mxPoint x="123" y="375" as="sourcePoint" />
            <mxPoint x="163" y="415" as="targetPoint" />
          </mxGeometry>
        </mxCell>
        <mxCell id="EGFDkehEQVp23pimZ-VM-56" value="" style="endArrow=none;html=1;rounded=0;" parent="1" edge="1">
          <mxGeometry width="50" height="50" relative="1" as="geometry">
            <mxPoint x="123" y="375" as="sourcePoint" />
            <mxPoint x="123" y="335" as="targetPoint" />
          </mxGeometry>
        </mxCell>
        <mxCell id="EGFDkehEQVp23pimZ-VM-57" value="" style="endArrow=none;html=1;rounded=0;" parent="1" edge="1">
          <mxGeometry width="50" height="50" relative="1" as="geometry">
            <mxPoint x="113" y="295" as="sourcePoint" />
            <mxPoint x="113" y="215" as="targetPoint" />
          </mxGeometry>
        </mxCell>
        <mxCell id="EGFDkehEQVp23pimZ-VM-58" value="" style="endArrow=none;html=1;rounded=0;" parent="1" edge="1">
          <mxGeometry width="50" height="50" relative="1" as="geometry">
            <mxPoint x="123" y="295" as="sourcePoint" />
            <mxPoint x="123" y="215" as="targetPoint" />
          </mxGeometry>
        </mxCell>
        <mxCell id="EGFDkehEQVp23pimZ-VM-59" value="" style="endArrow=none;html=1;rounded=0;" parent="1" edge="1">
          <mxGeometry width="50" height="50" relative="1" as="geometry">
            <mxPoint x="103" y="295" as="sourcePoint" />
            <mxPoint x="103" y="215" as="targetPoint" />
          </mxGeometry>
        </mxCell>
        <mxCell id="EGFDkehEQVp23pimZ-VM-60" value="" style="endArrow=none;html=1;rounded=0;" parent="1" edge="1">
          <mxGeometry width="50" height="50" relative="1" as="geometry">
            <mxPoint x="83" y="255" as="sourcePoint" />
            <mxPoint x="83" y="175" as="targetPoint" />
          </mxGeometry>
        </mxCell>
        <mxCell id="EGFDkehEQVp23pimZ-VM-61" value="" style="endArrow=none;html=1;rounded=0;" parent="1" edge="1">
          <mxGeometry width="50" height="50" relative="1" as="geometry">
            <mxPoint x="133" y="295" as="sourcePoint" />
            <mxPoint x="133" y="215" as="targetPoint" />
          </mxGeometry>
        </mxCell>
        <mxCell id="EGFDkehEQVp23pimZ-VM-62" value="" style="endArrow=none;html=1;rounded=0;" parent="1" edge="1">
          <mxGeometry width="50" height="50" relative="1" as="geometry">
            <mxPoint x="143" y="295" as="sourcePoint" />
            <mxPoint x="143" y="215" as="targetPoint" />
          </mxGeometry>
        </mxCell>
        <mxCell id="EGFDkehEQVp23pimZ-VM-63" value="" style="endArrow=none;html=1;rounded=0;" parent="1" edge="1">
          <mxGeometry width="50" height="50" relative="1" as="geometry">
            <mxPoint x="123" y="335" as="sourcePoint" />
            <mxPoint x="143" y="295" as="targetPoint" />
          </mxGeometry>
        </mxCell>
        <mxCell id="EGFDkehEQVp23pimZ-VM-64" value="" style="endArrow=none;html=1;rounded=0;" parent="1" edge="1">
          <mxGeometry width="50" height="50" relative="1" as="geometry">
            <mxPoint x="133" y="315" as="sourcePoint" />
            <mxPoint x="133" y="295" as="targetPoint" />
          </mxGeometry>
        </mxCell>
        <mxCell id="EGFDkehEQVp23pimZ-VM-65" value="" style="endArrow=none;html=1;rounded=0;" parent="1" edge="1">
          <mxGeometry width="50" height="50" relative="1" as="geometry">
            <mxPoint x="123" y="335" as="sourcePoint" />
            <mxPoint x="123" y="295" as="targetPoint" />
          </mxGeometry>
        </mxCell>
        <mxCell id="EGFDkehEQVp23pimZ-VM-66" value="" style="endArrow=none;html=1;rounded=0;" parent="1" edge="1">
          <mxGeometry width="50" height="50" relative="1" as="geometry">
            <mxPoint x="123" y="335" as="sourcePoint" />
            <mxPoint x="83" y="255" as="targetPoint" />
          </mxGeometry>
        </mxCell>
        <mxCell id="EGFDkehEQVp23pimZ-VM-68" value="" style="endArrow=none;html=1;rounded=0;" parent="1" edge="1">
          <mxGeometry width="50" height="50" relative="1" as="geometry">
            <mxPoint x="113" y="315" as="sourcePoint" />
            <mxPoint x="113" y="295" as="targetPoint" />
          </mxGeometry>
        </mxCell>
        <mxCell id="EGFDkehEQVp23pimZ-VM-69" value="" style="endArrow=none;html=1;rounded=0;" parent="1" edge="1">
          <mxGeometry width="50" height="50" relative="1" as="geometry">
            <mxPoint x="73" y="175" as="sourcePoint" />
            <mxPoint x="83" y="175" as="targetPoint" />
            <Array as="points">
              <mxPoint x="83" y="175" />
              <mxPoint x="93" y="175" />
            </Array>
          </mxGeometry>
        </mxCell>
        <mxCell id="EGFDkehEQVp23pimZ-VM-70" value="" style="endArrow=none;html=1;rounded=0;" parent="1" edge="1">
          <mxGeometry width="50" height="50" relative="1" as="geometry">
            <mxPoint x="93" y="215" as="sourcePoint" />
            <mxPoint x="103" y="215" as="targetPoint" />
            <Array as="points">
              <mxPoint x="103" y="215" />
              <mxPoint x="153" y="215" />
            </Array>
          </mxGeometry>
        </mxCell>
        <mxCell id="EGFDkehEQVp23pimZ-VM-71" value="" style="rounded=0;whiteSpace=wrap;html=1;" parent="1" vertex="1">
          <mxGeometry x="973" y="419" width="80" height="20" as="geometry" />
        </mxCell>
        <mxCell id="EGFDkehEQVp23pimZ-VM-72" value="" style="rounded=0;whiteSpace=wrap;html=1;" parent="1" vertex="1">
          <mxGeometry x="973" y="371" width="80" height="20" as="geometry" />
        </mxCell>
        <mxCell id="EGFDkehEQVp23pimZ-VM-73" value="" style="rounded=0;whiteSpace=wrap;html=1;" parent="1" vertex="1">
          <mxGeometry x="859" y="399" width="80" height="12" as="geometry" />
        </mxCell>
        <mxCell id="EGFDkehEQVp23pimZ-VM-74" value="" style="rounded=0;whiteSpace=wrap;html=1;" parent="1" vertex="1">
          <mxGeometry x="744.0024999999999" y="419.00250000000005" width="80" height="20" as="geometry" />
        </mxCell>
        <mxCell id="EGFDkehEQVp23pimZ-VM-75" value="" style="rounded=0;whiteSpace=wrap;html=1;" parent="1" vertex="1">
          <mxGeometry x="744.0024999999999" y="371.00250000000005" width="80" height="20" as="geometry" />
        </mxCell>
        <mxCell id="EGFDkehEQVp23pimZ-VM-76" value="" style="rounded=0;whiteSpace=wrap;html=1;" parent="1" vertex="1">
          <mxGeometry x="622.0049999999999" y="419.0050000000001" width="80" height="20" as="geometry" />
        </mxCell>
        <mxCell id="EGFDkehEQVp23pimZ-VM-77" value="" style="rounded=0;whiteSpace=wrap;html=1;" parent="1" vertex="1">
          <mxGeometry x="622.0049999999999" y="371.0050000000001" width="80" height="20" as="geometry" />
        </mxCell>
        <mxCell id="EGFDkehEQVp23pimZ-VM-91" value="" style="endArrow=none;html=1;rounded=0;strokeColor=#0000FF;opacity=50;strokeWidth=3;" parent="1" edge="1">
          <mxGeometry width="50" height="50" relative="1" as="geometry">
            <mxPoint x="101" y="395" as="sourcePoint" />
            <mxPoint x="721.0025" y="395.00249999999994" as="targetPoint" />
          </mxGeometry>
        </mxCell>
        <mxCell id="EGFDkehEQVp23pimZ-VM-92" value="" style="endArrow=none;html=1;rounded=0;strokeColor=#0000FF;opacity=50;strokeWidth=3;" parent="1" edge="1">
          <mxGeometry width="50" height="50" relative="1" as="geometry">
            <mxPoint x="100" y="415" as="sourcePoint" />
            <mxPoint x="719.995" y="415.0049999999999" as="targetPoint" />
          </mxGeometry>
        </mxCell>
        <mxCell id="EGFDkehEQVp23pimZ-VM-93" value="" style="endArrow=none;html=1;rounded=0;strokeColor=#0000FF;opacity=50;strokeWidth=3;" parent="1" edge="1">
          <mxGeometry width="50" height="50" relative="1" as="geometry">
            <mxPoint x="173" y="415" as="sourcePoint" />
            <mxPoint x="333" y="555" as="targetPoint" />
          </mxGeometry>
        </mxCell>
        <mxCell id="EGFDkehEQVp23pimZ-VM-94" value="" style="endArrow=none;html=1;rounded=0;strokeColor=#0000FF;opacity=50;strokeWidth=3;" parent="1" edge="1">
          <mxGeometry width="50" height="50" relative="1" as="geometry">
            <mxPoint x="413.0025" y="255.0025" as="sourcePoint" />
            <mxPoint x="572.0024999999999" y="394.00250000000005" as="targetPoint" />
          </mxGeometry>
        </mxCell>
        <mxCell id="EGFDkehEQVp23pimZ-VM-95" value="" style="endArrow=none;html=1;rounded=0;strokeColor=#0000FF;opacity=50;strokeWidth=3;" parent="1" edge="1">
          <mxGeometry width="50" height="50" relative="1" as="geometry">
            <mxPoint x="173" y="395" as="sourcePoint" />
            <mxPoint x="333" y="255" as="targetPoint" />
          </mxGeometry>
        </mxCell>
        <mxCell id="EGFDkehEQVp23pimZ-VM-96" value="" style="endArrow=none;html=1;rounded=0;strokeColor=#0000FF;opacity=50;strokeWidth=3;" parent="1" edge="1">
          <mxGeometry width="50" height="50" relative="1" as="geometry">
            <mxPoint x="333" y="555" as="sourcePoint" />
            <mxPoint x="413" y="555" as="targetPoint" />
          </mxGeometry>
        </mxCell>
        <mxCell id="EGFDkehEQVp23pimZ-VM-97" value="" style="endArrow=none;html=1;rounded=0;strokeColor=#0000FF;opacity=50;strokeWidth=3;" parent="1" edge="1">
          <mxGeometry width="50" height="50" relative="1" as="geometry">
            <mxPoint x="413.0025" y="555.0025" as="sourcePoint" />
            <mxPoint x="573.0024999999999" y="415.00250000000005" as="targetPoint" />
          </mxGeometry>
        </mxCell>
        <mxCell id="EGFDkehEQVp23pimZ-VM-98" value="" style="endArrow=none;html=1;rounded=0;strokeColor=#0000FF;opacity=50;strokeWidth=3;" parent="1" edge="1">
          <mxGeometry width="50" height="50" relative="1" as="geometry">
            <mxPoint x="264.00249999999994" y="495.00249999999994" as="sourcePoint" />
            <mxPoint x="481" y="495" as="targetPoint" />
          </mxGeometry>
        </mxCell>
        <mxCell id="EGFDkehEQVp23pimZ-VM-99" value="" style="endArrow=none;html=1;rounded=0;strokeColor=#0000FF;opacity=50;strokeWidth=3;" parent="1" edge="1">
          <mxGeometry width="50" height="50" relative="1" as="geometry">
            <mxPoint x="264.505" y="315.00499999999994" as="sourcePoint" />
            <mxPoint x="481.5025" y="315.0025" as="targetPoint" />
          </mxGeometry>
        </mxCell>
        <mxCell id="EGFDkehEQVp23pimZ-VM-100" value="" style="endArrow=none;html=1;rounded=0;strokeColor=#0000FF;opacity=50;strokeWidth=3;" parent="1" edge="1">
          <mxGeometry width="50" height="50" relative="1" as="geometry">
            <mxPoint x="332.99749999999995" y="255.00749999999994" as="sourcePoint" />
            <mxPoint x="413" y="255" as="targetPoint" />
          </mxGeometry>
        </mxCell>
        <mxCell id="EGFDkehEQVp23pimZ-VM-101" value="" style="endArrow=none;html=1;rounded=0;strokeColor=#0000FF;opacity=50;strokeWidth=3;" parent="1" edge="1">
          <mxGeometry width="50" height="50" relative="1" as="geometry">
            <mxPoint x="241.99999999999994" y="475.01" as="sourcePoint" />
            <mxPoint x="504" y="475" as="targetPoint" />
          </mxGeometry>
        </mxCell>
        <mxCell id="EGFDkehEQVp23pimZ-VM-102" value="" style="endArrow=none;html=1;rounded=0;strokeColor=#0000FF;opacity=50;strokeWidth=3;" parent="1" edge="1">
          <mxGeometry width="50" height="50" relative="1" as="geometry">
            <mxPoint x="242.00249999999994" y="335.01250000000005" as="sourcePoint" />
            <mxPoint x="504.0025" y="335.00250000000005" as="targetPoint" />
          </mxGeometry>
        </mxCell>
        <mxCell id="EGFDkehEQVp23pimZ-VM-103" value="" style="endArrow=none;html=1;rounded=0;strokeColor=#0000FF;opacity=50;strokeWidth=3;" parent="1" edge="1">
          <mxGeometry width="50" height="50" relative="1" as="geometry">
            <mxPoint x="583" y="395" as="sourcePoint" />
            <mxPoint x="603.0049999999999" y="414.995" as="targetPoint" />
          </mxGeometry>
        </mxCell>
        <mxCell id="EGFDkehEQVp23pimZ-VM-104" value="" style="endArrow=none;html=1;rounded=0;strokeColor=#0000FF;opacity=50;strokeWidth=3;" parent="1" edge="1">
          <mxGeometry width="50" height="50" relative="1" as="geometry">
            <mxPoint x="123" y="375" as="sourcePoint" />
            <mxPoint x="163.00749999999982" y="414.99749999999995" as="targetPoint" />
          </mxGeometry>
        </mxCell>
        <mxCell id="EGFDkehEQVp23pimZ-VM-105" value="" style="endArrow=none;html=1;rounded=0;strokeColor=#0000FF;opacity=50;strokeWidth=3;" parent="1" edge="1">
          <mxGeometry width="50" height="50" relative="1" as="geometry">
            <mxPoint x="142.0025" y="416.00250000000005" as="sourcePoint" />
            <mxPoint x="163" y="395" as="targetPoint" />
          </mxGeometry>
        </mxCell>
        <mxCell id="EGFDkehEQVp23pimZ-VM-106" value="" style="endArrow=none;html=1;rounded=0;strokeColor=#0000FF;opacity=50;strokeWidth=3;" parent="1" edge="1">
          <mxGeometry width="50" height="50" relative="1" as="geometry">
            <mxPoint x="122.995" y="375.505" as="sourcePoint" />
            <mxPoint x="123" y="347" as="targetPoint" />
          </mxGeometry>
        </mxCell>
        <mxCell id="EGFDkehEQVp23pimZ-VM-107" value="" style="endArrow=none;html=1;rounded=0;strokeColor=#0000FF;opacity=50;strokeWidth=3;" parent="1" edge="1">
          <mxGeometry width="50" height="50" relative="1" as="geometry">
            <mxPoint x="582.995" y="415.5050000000001" as="sourcePoint" />
            <mxPoint x="603.9925000000001" y="394.50250000000005" as="targetPoint" />
          </mxGeometry>
        </mxCell>
        <mxCell id="EGFDkehEQVp23pimZ-VM-109" value="博麗神社&lt;br&gt;" style="text;strokeColor=none;align=center;fillColor=none;html=1;verticalAlign=middle;whiteSpace=wrap;rounded=0;" parent="1" vertex="1">
          <mxGeometry x="1262.999226190476" y="487.001130952381" width="60" height="30" as="geometry" />
        </mxCell>
        <mxCell id="EGFDkehEQVp23pimZ-VM-110" value="南博麗" style="text;strokeColor=none;align=center;fillColor=none;html=1;verticalAlign=middle;whiteSpace=wrap;rounded=0;" parent="1" vertex="1">
          <mxGeometry x="983.0017261904761" y="444.00363095238095" width="60" height="30" as="geometry" />
        </mxCell>
        <mxCell id="EGFDkehEQVp23pimZ-VM-111" value="永遠亭" style="text;strokeColor=none;align=center;fillColor=none;html=1;verticalAlign=middle;whiteSpace=wrap;rounded=0;" parent="1" vertex="1">
          <mxGeometry x="869.0042261904761" y="419.0061309523809" width="60" height="30" as="geometry" />
        </mxCell>
        <mxCell id="EGFDkehEQVp23pimZ-VM-112" value="竹林" style="text;strokeColor=none;align=center;fillColor=none;html=1;verticalAlign=middle;whiteSpace=wrap;rounded=0;" parent="1" vertex="1">
          <mxGeometry x="754.006726190476" y="444.0086309523808" width="60" height="30" as="geometry" />
        </mxCell>
        <mxCell id="EGFDkehEQVp23pimZ-VM-113" value="南人間の里" style="text;strokeColor=none;align=center;fillColor=none;html=1;verticalAlign=middle;whiteSpace=wrap;rounded=0;" parent="1" vertex="1">
          <mxGeometry x="625.51" y="444.01" width="72.99" height="30" as="geometry" />
        </mxCell>
        <mxCell id="EGFDkehEQVp23pimZ-VM-114" value="人間の里" style="text;strokeColor=none;align=center;fillColor=none;html=1;verticalAlign=middle;whiteSpace=wrap;rounded=0;" parent="1" vertex="1">
          <mxGeometry x="336.50249999999994" y="563.0024999999999" width="72.99" height="30" as="geometry" />
        </mxCell>
        <mxCell id="EGFDkehEQVp23pimZ-VM-115" value="博麗電車区" style="text;strokeColor=none;align=center;fillColor=none;html=1;verticalAlign=middle;whiteSpace=wrap;rounded=0;" parent="1" vertex="1">
          <mxGeometry x="1528" y="301" width="90" height="30" as="geometry" />
        </mxCell>
        <mxCell id="EGFDkehEQVp23pimZ-VM-116" value="人里車両センター" style="text;strokeColor=none;align=center;fillColor=none;html=1;verticalAlign=middle;whiteSpace=wrap;rounded=0;" parent="1" vertex="1">
          <mxGeometry x="48" y="147" width="141" height="30" as="geometry" />
        </mxCell>
        <mxCell id="EGFDkehEQVp23pimZ-VM-117" value="&lt;font style=&quot;font-size: 10px;&quot;&gt;命蓮寺・守矢神社方面&lt;/font&gt;" style="text;strokeColor=none;align=center;fillColor=none;html=1;verticalAlign=middle;whiteSpace=wrap;rounded=0;" parent="1" vertex="1">
          <mxGeometry x="19" y="414.01" width="154" height="30" as="geometry" />
        </mxCell>
        <mxCell id="EGFDkehEQVp23pimZ-VM-119" value="" style="endArrow=none;html=1;rounded=0;" parent="1" edge="1">
          <mxGeometry width="50" height="50" relative="1" as="geometry">
            <mxPoint x="122" y="395" as="sourcePoint" />
            <mxPoint x="174" y="395" as="targetPoint" />
          </mxGeometry>
        </mxCell>
        <mxCell id="EGFDkehEQVp23pimZ-VM-120" value="&lt;font style=&quot;font-size: 60px;&quot;&gt;&lt;font style=&quot;font-size: 60px;&quot;&gt;幻想郷鉄道（博麗神社ー人間の里）配&lt;/font&gt;線略図&lt;/font&gt;" style="text;strokeColor=none;align=center;fillColor=none;html=1;verticalAlign=middle;whiteSpace=wrap;rounded=0;" parent="1" vertex="1">
          <mxGeometry x="41.510000000000005" y="22" width="1449" height="96" as="geometry" />
        </mxCell>
        <mxCell id="EGFDkehEQVp23pimZ-VM-121" value="①" style="text;strokeColor=none;align=center;fillColor=none;html=1;verticalAlign=middle;whiteSpace=wrap;rounded=0;" parent="1" vertex="1">
          <mxGeometry x="1233" y="442" width="60" height="30" as="geometry" />
        </mxCell>
        <mxCell id="EGFDkehEQVp23pimZ-VM-122" value="②" style="text;strokeColor=none;align=center;fillColor=none;html=1;verticalAlign=middle;whiteSpace=wrap;rounded=0;" parent="1" vertex="1">
          <mxGeometry x="1233.0025" y="422.0025" width="60" height="30" as="geometry" />
        </mxCell>
        <mxCell id="EGFDkehEQVp23pimZ-VM-123" value="③" style="text;strokeColor=none;align=center;fillColor=none;html=1;verticalAlign=middle;whiteSpace=wrap;rounded=0;" parent="1" vertex="1">
          <mxGeometry x="1233.005" y="358.995" width="60" height="30" as="geometry" />
        </mxCell>
        <mxCell id="EGFDkehEQVp23pimZ-VM-124" value="④" style="text;strokeColor=none;align=center;fillColor=none;html=1;verticalAlign=middle;whiteSpace=wrap;rounded=0;" parent="1" vertex="1">
          <mxGeometry x="1233.0075000000002" y="340.9975" width="60" height="30" as="geometry" />
        </mxCell>
        <mxCell id="EGFDkehEQVp23pimZ-VM-125" value="①" style="text;strokeColor=none;align=center;fillColor=none;html=1;verticalAlign=middle;whiteSpace=wrap;rounded=0;" parent="1" vertex="1">
          <mxGeometry x="313.00249999999994" y="520.0024999999999" width="60" height="30" as="geometry" />
        </mxCell>
        <mxCell id="EGFDkehEQVp23pimZ-VM-126" value="②" style="text;strokeColor=none;align=center;fillColor=none;html=1;verticalAlign=middle;whiteSpace=wrap;rounded=0;" parent="1" vertex="1">
          <mxGeometry x="313.005" y="501.995" width="60" height="30" as="geometry" />
        </mxCell>
        <mxCell id="EGFDkehEQVp23pimZ-VM-127" value="④" style="text;strokeColor=none;align=center;fillColor=none;html=1;verticalAlign=middle;whiteSpace=wrap;rounded=0;" parent="1" vertex="1">
          <mxGeometry x="313.0000000000001" y="422" width="60" height="30" as="geometry" />
        </mxCell>
        <mxCell id="EGFDkehEQVp23pimZ-VM-128" value="③" style="text;strokeColor=none;align=center;fillColor=none;html=1;verticalAlign=middle;whiteSpace=wrap;rounded=0;" parent="1" vertex="1">
          <mxGeometry x="312.99750000000006" y="438.99749999999995" width="60" height="30" as="geometry" />
        </mxCell>
        <mxCell id="EGFDkehEQVp23pimZ-VM-129" value="⑤" style="text;strokeColor=none;align=center;fillColor=none;html=1;verticalAlign=middle;whiteSpace=wrap;rounded=0;" parent="1" vertex="1">
          <mxGeometry x="313.00499999999994" y="358.9949999999999" width="60" height="30" as="geometry" />
        </mxCell>
        <mxCell id="EGFDkehEQVp23pimZ-VM-130" value="⑥" style="text;strokeColor=none;align=center;fillColor=none;html=1;verticalAlign=middle;whiteSpace=wrap;rounded=0;" parent="1" vertex="1">
          <mxGeometry x="313.0075" y="340.98749999999995" width="60" height="30" as="geometry" />
        </mxCell>
        <mxCell id="EGFDkehEQVp23pimZ-VM-131" value="⑧" style="text;strokeColor=none;align=center;fillColor=none;html=1;verticalAlign=middle;whiteSpace=wrap;rounded=0;" parent="1" vertex="1">
          <mxGeometry x="313.0025000000001" y="260.99249999999995" width="60" height="30" as="geometry" />
        </mxCell>
        <mxCell id="EGFDkehEQVp23pimZ-VM-132" value="⑦" style="text;strokeColor=none;align=center;fillColor=none;html=1;verticalAlign=middle;whiteSpace=wrap;rounded=0;" parent="1" vertex="1">
          <mxGeometry x="313.00000000000006" y="277.9899999999999" width="60" height="30" as="geometry" />
        </mxCell>
        <mxCell id="-fVv7rPrCd2kUO5Vlaj1-1" value="" style="endArrow=none;html=1;rounded=0;" parent="1" edge="1">
          <mxGeometry width="50" height="50" relative="1" as="geometry">
            <mxPoint x="1154" y="395" as="sourcePoint" />
            <mxPoint x="1134" y="374" as="targetPoint" />
          </mxGeometry>
        </mxCell>
        <mxCell id="-fVv7rPrCd2kUO5Vlaj1-3" value="" style="endArrow=none;html=1;rounded=0;" parent="1" edge="1">
          <mxGeometry width="50" height="50" relative="1" as="geometry">
            <mxPoint x="1134.11" y="375.45" as="sourcePoint" />
            <mxPoint x="1134" y="294" as="targetPoint" />
          </mxGeometry>
        </mxCell>
        <mxCell id="-fVv7rPrCd2kUO5Vlaj1-4" value="" style="endArrow=none;html=1;rounded=0;" parent="1" edge="1">
          <mxGeometry width="50" height="50" relative="1" as="geometry">
            <mxPoint x="1103" y="262" as="sourcePoint" />
            <mxPoint x="1134" y="294" as="targetPoint" />
          </mxGeometry>
        </mxCell>
        <mxCell id="-fVv7rPrCd2kUO5Vlaj1-5" value="" style="endArrow=none;html=1;rounded=0;" parent="1" edge="1">
          <mxGeometry width="50" height="50" relative="1" as="geometry">
            <mxPoint x="973" y="262" as="sourcePoint" />
            <mxPoint x="1103" y="262" as="targetPoint" />
          </mxGeometry>
        </mxCell>
        <mxCell id="-fVv7rPrCd2kUO5Vlaj1-6" value="" style="endArrow=none;html=1;rounded=0;" parent="1" edge="1">
          <mxGeometry width="50" height="50" relative="1" as="geometry">
            <mxPoint x="945" y="247" as="sourcePoint" />
            <mxPoint x="973" y="262" as="targetPoint" />
          </mxGeometry>
        </mxCell>
        <mxCell id="-fVv7rPrCd2kUO5Vlaj1-7" value="" style="endArrow=none;html=1;rounded=0;" parent="1" edge="1">
          <mxGeometry width="50" height="50" relative="1" as="geometry">
            <mxPoint x="945" y="278" as="sourcePoint" />
            <mxPoint x="973" y="260.99" as="targetPoint" />
          </mxGeometry>
        </mxCell>
        <mxCell id="-fVv7rPrCd2kUO5Vlaj1-8" value="" style="endArrow=none;html=1;rounded=0;" parent="1" edge="1">
          <mxGeometry width="50" height="50" relative="1" as="geometry">
            <mxPoint x="866" y="247" as="sourcePoint" />
            <mxPoint x="945" y="247" as="targetPoint" />
          </mxGeometry>
        </mxCell>
        <mxCell id="-fVv7rPrCd2kUO5Vlaj1-9" value="" style="endArrow=none;html=1;rounded=0;" parent="1" edge="1">
          <mxGeometry width="50" height="50" relative="1" as="geometry">
            <mxPoint x="866" y="278" as="sourcePoint" />
            <mxPoint x="945" y="278" as="targetPoint" />
          </mxGeometry>
        </mxCell>
        <mxCell id="-fVv7rPrCd2kUO5Vlaj1-10" value="" style="endArrow=none;html=1;rounded=0;" parent="1" edge="1">
          <mxGeometry width="50" height="50" relative="1" as="geometry">
            <mxPoint x="835" y="262" as="sourcePoint" />
            <mxPoint x="868" y="246.70999999999998" as="targetPoint" />
          </mxGeometry>
        </mxCell>
        <mxCell id="-fVv7rPrCd2kUO5Vlaj1-11" value="" style="endArrow=none;html=1;rounded=0;" parent="1" edge="1">
          <mxGeometry width="50" height="50" relative="1" as="geometry">
            <mxPoint x="834.9" y="260.99" as="sourcePoint" />
            <mxPoint x="866" y="278" as="targetPoint" />
          </mxGeometry>
        </mxCell>
        <mxCell id="-fVv7rPrCd2kUO5Vlaj1-12" value="" style="endArrow=none;html=1;rounded=0;" parent="1" edge="1">
          <mxGeometry width="50" height="50" relative="1" as="geometry">
            <mxPoint x="740" y="262" as="sourcePoint" />
            <mxPoint x="835" y="262" as="targetPoint" />
          </mxGeometry>
        </mxCell>
        <mxCell id="-fVv7rPrCd2kUO5Vlaj1-13" value="" style="endArrow=none;html=1;rounded=0;" parent="1" edge="1">
          <mxGeometry width="50" height="50" relative="1" as="geometry">
            <mxPoint x="709" y="247" as="sourcePoint" />
            <mxPoint x="740" y="262" as="targetPoint" />
          </mxGeometry>
        </mxCell>
        <mxCell id="-fVv7rPrCd2kUO5Vlaj1-14" value="" style="endArrow=none;html=1;rounded=0;" parent="1" edge="1">
          <mxGeometry width="50" height="50" relative="1" as="geometry">
            <mxPoint x="709" y="278" as="sourcePoint" />
            <mxPoint x="739.23" y="262.46" as="targetPoint" />
          </mxGeometry>
        </mxCell>
        <mxCell id="-fVv7rPrCd2kUO5Vlaj1-15" value="" style="endArrow=none;html=1;rounded=0;" parent="1" edge="1">
          <mxGeometry width="50" height="50" relative="1" as="geometry">
            <mxPoint x="646" y="247" as="sourcePoint" />
            <mxPoint x="709.67" y="247" as="targetPoint" />
          </mxGeometry>
        </mxCell>
        <mxCell id="-fVv7rPrCd2kUO5Vlaj1-16" value="" style="endArrow=none;html=1;rounded=0;" parent="1" edge="1">
          <mxGeometry width="50" height="50" relative="1" as="geometry">
            <mxPoint x="646" y="278" as="sourcePoint" />
            <mxPoint x="709" y="277.99" as="targetPoint" />
          </mxGeometry>
        </mxCell>
        <mxCell id="-fVv7rPrCd2kUO5Vlaj1-17" value="" style="endArrow=none;html=1;rounded=0;" parent="1" edge="1">
          <mxGeometry width="50" height="50" relative="1" as="geometry">
            <mxPoint x="480.57" y="315" as="sourcePoint" />
            <mxPoint x="646" y="247" as="targetPoint" />
            <Array as="points">
              <mxPoint x="516" y="314" />
              <mxPoint x="536" y="298" />
              <mxPoint x="536" y="274" />
              <mxPoint x="567" y="247" />
            </Array>
          </mxGeometry>
        </mxCell>
        <mxCell id="-fVv7rPrCd2kUO5Vlaj1-18" value="" style="endArrow=none;html=1;rounded=0;" parent="1" edge="1">
          <mxGeometry width="50" height="50" relative="1" as="geometry">
            <mxPoint x="504.187" y="334.397" as="sourcePoint" />
            <mxPoint x="646" y="278" as="targetPoint" />
            <Array as="points">
              <mxPoint x="540" y="334" />
              <mxPoint x="551" y="325" />
              <mxPoint x="551" y="294" />
              <mxPoint x="567" y="278" />
            </Array>
          </mxGeometry>
        </mxCell>
        <mxCell id="-fVv7rPrCd2kUO5Vlaj1-19" value="" style="endArrow=none;html=1;rounded=0;" parent="1" edge="1">
          <mxGeometry width="50" height="50" relative="1" as="geometry">
            <mxPoint x="835" y="262" as="sourcePoint" />
            <mxPoint x="973" y="262" as="targetPoint" />
          </mxGeometry>
        </mxCell>
        <mxCell id="-fVv7rPrCd2kUO5Vlaj1-20" value="" style="endArrow=none;html=1;rounded=0;strokeWidth=3;strokeColor=#0000FF;opacity=50;" parent="1" edge="1">
          <mxGeometry width="50" height="50" relative="1" as="geometry">
            <mxPoint x="480.567" y="314.707" as="sourcePoint" />
            <mxPoint x="645.997" y="246.707" as="targetPoint" />
            <Array as="points">
              <mxPoint x="515.9970000000001" y="313.707" />
              <mxPoint x="535.997" y="297.707" />
              <mxPoint x="535.997" y="273.707" />
              <mxPoint x="566.997" y="246.707" />
            </Array>
          </mxGeometry>
        </mxCell>
        <mxCell id="-fVv7rPrCd2kUO5Vlaj1-21" value="" style="endArrow=none;html=1;rounded=0;strokeWidth=3;opacity=50;strokeColor=#0000FF;" parent="1" edge="1">
          <mxGeometry width="50" height="50" relative="1" as="geometry">
            <mxPoint x="504.184" y="334.384" as="sourcePoint" />
            <mxPoint x="645.997" y="277.987" as="targetPoint" />
            <Array as="points">
              <mxPoint x="539.997" y="333.987" />
              <mxPoint x="550.997" y="324.987" />
              <mxPoint x="550.997" y="293.987" />
              <mxPoint x="566.997" y="277.987" />
            </Array>
          </mxGeometry>
        </mxCell>
        <mxCell id="-fVv7rPrCd2kUO5Vlaj1-22" value="" style="endArrow=none;html=1;rounded=0;strokeWidth=3;opacity=50;strokeColor=#0000FF;" parent="1" edge="1">
          <mxGeometry width="50" height="50" relative="1" as="geometry">
            <mxPoint x="645.917" y="246.707" as="sourcePoint" />
            <mxPoint x="709.587" y="246.707" as="targetPoint" />
          </mxGeometry>
        </mxCell>
        <mxCell id="-fVv7rPrCd2kUO5Vlaj1-23" value="" style="endArrow=none;html=1;rounded=0;strokeColor=#0000FF;strokeWidth=3;opacity=50;" parent="1" edge="1">
          <mxGeometry width="50" height="50" relative="1" as="geometry">
            <mxPoint x="645.917" y="277.997" as="sourcePoint" />
            <mxPoint x="708.917" y="277.987" as="targetPoint" />
          </mxGeometry>
        </mxCell>
        <mxCell id="-fVv7rPrCd2kUO5Vlaj1-24" value="" style="endArrow=none;html=1;rounded=0;strokeWidth=3;opacity=50;strokeColor=#0000FF;" parent="1" edge="1">
          <mxGeometry width="50" height="50" relative="1" as="geometry">
            <mxPoint x="708.917" y="277.987" as="sourcePoint" />
            <mxPoint x="739.147" y="262.447" as="targetPoint" />
          </mxGeometry>
        </mxCell>
        <mxCell id="-fVv7rPrCd2kUO5Vlaj1-39" value="" style="rounded=0;whiteSpace=wrap;html=1;" parent="1" vertex="1">
          <mxGeometry x="622.01" y="251" width="80" height="23" as="geometry" />
        </mxCell>
        <mxCell id="-fVv7rPrCd2kUO5Vlaj1-40" value="" style="rounded=0;whiteSpace=wrap;html=1;" parent="1" vertex="1">
          <mxGeometry x="865.9994999999999" y="282.9895000000001" width="80" height="20" as="geometry" />
        </mxCell>
        <mxCell id="-fVv7rPrCd2kUO5Vlaj1-41" value="" style="rounded=0;whiteSpace=wrap;html=1;" parent="1" vertex="1">
          <mxGeometry x="865.9964999999999" y="222.99650000000008" width="80" height="20" as="geometry" />
        </mxCell>
        <mxCell id="-fVv7rPrCd2kUO5Vlaj1-42" value="獣道" style="text;strokeColor=none;align=center;fillColor=none;html=1;verticalAlign=middle;whiteSpace=wrap;rounded=0;" parent="1" vertex="1">
          <mxGeometry x="876.0037261904761" y="307.9856309523808" width="60" height="30" as="geometry" />
        </mxCell>
        <mxCell id="-fVv7rPrCd2kUO5Vlaj1-43" value="きりさめ新都心" style="text;strokeColor=none;align=center;fillColor=none;html=1;verticalAlign=middle;whiteSpace=wrap;rounded=0;" parent="1" vertex="1">
          <mxGeometry x="607.5" y="282.99" width="109" height="30" as="geometry" />
        </mxCell>
        <mxCell id="-fVv7rPrCd2kUO5Vlaj1-44" value="&lt;b&gt;&lt;font style=&quot;font-size: 15px;&quot;&gt;博麗守矢ライン&lt;/font&gt;&lt;/b&gt;" style="text;strokeColor=none;align=center;fillColor=none;html=1;verticalAlign=middle;whiteSpace=wrap;rounded=0;" parent="1" vertex="1">
          <mxGeometry x="1112" y="247.5" width="134" height="30" as="geometry" />
        </mxCell>
        <mxCell id="-fVv7rPrCd2kUO5Vlaj1-45" value="&lt;span style=&quot;font-size: 15px;&quot;&gt;&lt;b&gt;環状線&lt;/b&gt;&lt;/span&gt;" style="text;strokeColor=none;align=center;fillColor=none;html=1;verticalAlign=middle;whiteSpace=wrap;rounded=0;" parent="1" vertex="1">
          <mxGeometry x="1443.9969999999998" y="398.99700000000007" width="134" height="30" as="geometry" />
        </mxCell>
        <mxCell id="hqFUhvza6NUZzinEDb47-6" value="" style="rounded=0;whiteSpace=wrap;html=1;fillColor=none;dashed=1;strokeWidth=3;strokeColor=#0000FF;" vertex="1" parent="1">
          <mxGeometry x="1270" y="302.99" width="368" height="196.01" as="geometry" />
        </mxCell>
        <mxCell id="hqFUhvza6NUZzinEDb47-7" value="" style="rounded=0;whiteSpace=wrap;html=1;fillColor=none;dashed=1;strokeWidth=3;strokeColor=#0000FF;" vertex="1" parent="1">
          <mxGeometry x="165" y="302.99" width="1105" height="196.01" as="geometry" />
        </mxCell>
      </root>
    </mxGraphModel>
  </diagram>
</mxfile>
